<svg width="24" height="24" viewBox="0 0 24 24" fill="none" xmlns="http://www.w3.org/2000/svg">
<g id="shopping-tote-24-outlined">
<path id="icon" fill-rule="evenodd" clip-rule="evenodd" d="M7.03319 6C7.32717 3.81519 9.51054 2 11.9996 2C14.4886 2 16.672 3.81519 16.966 6H19.8466C20.9511 6 21.8466 6.89543 21.8466 8C21.8466 8.09464 21.8399 8.18916 21.8265 8.28284L20.1122 20.2828C19.9714 21.2681 19.1276 22 18.1323 22H5.86688C4.87158 22 4.02774 21.2681 3.88699 20.2828L2.1727 8.28284C2.01649 7.18937 2.77629 6.17631 3.86976 6.0201C3.96344 6.00672 4.05796 6 4.1526 6H7.03319ZM14.9275 6C14.6235 4.93808 13.3976 4 11.9996 4C10.6016 4 9.3757 4.93808 9.07171 6H14.9275ZM4.1526 8H6.99959V10H8.99959V8H14.9996V10H16.9996V8H19.8466L18.1323 20H5.86688L4.1526 8Z" fill="#171112"/>
</g>
</svg>
