<svg width="37" height="37" viewBox="0 0 37 37" fill="none" xmlns="http://www.w3.org/2000/svg">
<g clip-path="url(#clip0_23_1342)">
<path d="M28.2502 35.0003H28.2007C27.4342 34.9883 26.7052 34.6628 26.1832 34.1003L22.9312 30.7073L25.1002 28.6343L28.2592 31.9343L34.3807 25.8113L36.5002 27.9278L30.2587 34.1708C29.7277 34.7048 29.0032 35.0048 28.2502 35.0003Z" fill="#FF560D"/>
<path d="M18.5251 0.50106C8.5996 0.47106 0.529596 8.50506 0.499596 18.4456C0.469596 28.3861 8.4901 36.4711 18.4141 36.5011C20.0596 36.5056 21.6991 36.2851 23.2846 35.8426C20.3326 31.8556 21.1681 26.2261 25.1491 23.2696C28.3231 20.9131 32.6626 20.9131 35.8366 23.2696C38.4931 13.7191 32.9176 3.82056 23.3836 1.15956C21.8026 0.71856 20.1676 0.49656 18.5251 0.50106ZM20.0251 17.6221L15.0856 22.5616L12.9646 20.4406L17.0251 16.3801V9.50106H20.0251V17.6221Z" fill="#FF560D"/>
</g>
<defs>
<clipPath id="clip0_23_1342">
<rect width="36" height="36" fill="white" transform="translate(0.5 0.5)"/>
</clipPath>
</defs>
</svg>
