<svg width="27" height="28" viewBox="0 0 27 28" fill="none" xmlns="http://www.w3.org/2000/svg">
<path fill-rule="evenodd" clip-rule="evenodd" d="M6.83329 14C6.83329 17.6819 9.81806 20.6667 13.5 20.6667C17.1819 20.6667 20.1666 17.6819 20.1666 14C20.1666 10.3181 17.1819 7.33334 13.5 7.33334C9.81806 7.33334 6.83329 10.3181 6.83329 14ZM13.5 18C15.7091 18 17.5 16.2091 17.5 14C17.5 11.7909 15.7091 10 13.5 10C11.2908 10 9.49996 11.7909 9.49996 14C9.49996 16.2091 11.2908 18 13.5 18Z" fill="#FBFBFB"/>
<path d="M20.1666 8.66667C20.903 8.66667 21.5 8.06972 21.5 7.33334C21.5 6.59696 20.903 6.00001 20.1666 6.00001C19.4302 6.00001 18.8333 6.59696 18.8333 7.33334C18.8333 8.06972 19.4302 8.66667 20.1666 8.66667Z" fill="#FBFBFB"/>
<path fill-rule="evenodd" clip-rule="evenodd" d="M18.8333 0.666672C23.2516 0.666672 26.8333 4.24839 26.8333 8.66667V19.3333C26.8333 23.7516 23.2516 27.3333 18.8333 27.3333H8.16663C3.74835 27.3333 0.166626 23.7516 0.166626 19.3333V8.66667C0.166626 4.24839 3.74835 0.666672 8.16663 0.666672H18.8333ZM18.8333 3.33334H8.16663C5.22111 3.33334 2.83329 5.72115 2.83329 8.66667V19.3333C2.83329 22.2789 5.22111 24.6667 8.16663 24.6667H18.8333C21.7788 24.6667 24.1666 22.2789 24.1666 19.3333V8.66667C24.1666 5.72115 21.7788 3.33334 18.8333 3.33334Z" fill="#FBFBFB"/>
</svg>
