<svg width="20" height="20" viewBox="0 0 20 20" fill="none" xmlns="http://www.w3.org/2000/svg">
<path fill-rule="evenodd" clip-rule="evenodd" d="M8.85657 6.33796C9.37468 5.63975 9.56046 4.9039 8.9745 4.25437C7.65955 2.41439 6.77521 1.27655 6.22051 0.728598C5.16595 -0.313135 3.43118 -0.172224 2.51785 0.727708C2.0273 1.21107 1.86122 1.37706 1.35753 1.88867C-1.44812 4.69583 0.262908 10.6301 4.81145 15.1831C9.35896 19.7351 15.2926 21.447 18.1042 18.6339C18.569 18.1858 18.9625 17.7921 19.2729 17.464C20.1679 16.518 20.3038 14.8598 19.267 13.7825C18.7354 13.2302 17.6504 12.3885 15.733 11.017C15.1457 10.4919 14.4495 10.6057 13.8111 11.0245C13.504 11.226 13.2806 11.4297 12.8586 11.8521L12.0924 12.6188C11.9914 12.7198 10.621 12.0335 9.29077 10.7019C7.95978 9.36959 7.27396 7.99912 7.37441 7.89868L8.14118 7.13148C8.27506 6.99748 8.33906 6.9326 8.42114 6.84633C8.59215 6.6666 8.73374 6.5035 8.85657 6.33796ZM13.5058 14.033L14.2722 13.2662C14.5044 13.0337 14.6549 12.8908 14.7774 12.7923C16.457 13.9985 17.4298 14.7569 17.8271 15.1698C18.0657 15.4176 18.0286 15.8699 17.8212 16.0891C17.5342 16.3924 17.1614 16.7655 16.7038 17.2069C14.8858 19.0257 10.096 17.6437 6.22519 13.7692C2.35321 9.89338 0.971944 5.10285 2.77626 3.29755C3.27792 2.78804 3.43686 2.62918 3.92042 2.15271C4.10172 1.97407 4.59558 1.93395 4.81614 2.15182C5.2432 2.5737 6.0354 3.58805 7.20077 5.21139C7.14044 5.28629 7.06509 5.37093 6.97339 5.4673C6.90609 5.53804 6.85002 5.59488 6.72744 5.71758L5.96142 6.48402C4.65827 7.78706 5.76808 10.0048 7.87703 12.1158C9.98454 14.2254 12.2031 15.3364 13.5058 14.033Z" fill="#FF560D"/>
<path d="M11.6551 0.0695017C15.9784 0.59354 19.4064 4.02159 19.9305 8.34491L17.955 8.67415C17.5736 5.19178 14.8082 2.42636 11.3258 2.04494L11.6551 0.0695017Z" fill="#FF560D"/>
<path d="M15.9779 9.00367C15.7416 6.36215 13.6378 4.25834 10.9963 4.02208L10.666 6.00386C12.4669 6.08796 13.912 7.53308 13.9961 9.33397L15.9779 9.00367Z" fill="#FF560D"/>
</svg>
