<svg width="24" height="24" viewBox="0 0 24 24" fill="none" xmlns="http://www.w3.org/2000/svg">
<g id="user-24-outlined">
<g id="icon">
<path fill-rule="evenodd" clip-rule="evenodd" d="M12 2C15.3137 2 18 4.68629 18 8C18 11.3137 15.3137 14 12 14C8.68629 14 6 11.3137 6 8C6 4.68629 8.68629 2 12 2ZM12 4C9.79086 4 8 5.79086 8 8C8 10.2091 9.79086 12 12 12C14.2091 12 16 10.2091 16 8C16 5.79086 14.2091 4 12 4Z" fill="#171112"/>
<path d="M19.1023 16.2101C17.3457 15.3954 14.9814 15 12 15C9.0186 15 6.65432 15.3954 4.897 16.2104C3.13118 17.0276 2.00058 18.7969 2 20.7438V22H4V20.7441C4.00035 19.5765 4.67842 18.5154 5.73773 18.0251C7.19422 17.3496 9.28479 17 12 17C14.7152 17 16.8058 17.3496 18.2616 18.0248C19.3216 18.5154 19.9996 19.5765 20 20.7444V22H22V20.7441C21.9994 18.7969 20.8688 17.0276 19.1023 16.2101Z" fill="#171112"/>
</g>
</g>
</svg>
