<svg width="20" height="20" viewBox="0 0 20 20" fill="none" xmlns="http://www.w3.org/2000/svg">
<path fill-rule="evenodd" clip-rule="evenodd" d="M12.8944 0.552761L15.117 4.99976L18 4.99997C19.1046 4.99997 20 5.89541 20 6.99997V8.99998C20 9.84009 19.482 10.5592 18.748 10.8554C18.7516 10.9026 18.7534 10.9511 18.7534 11C18.7534 11.1459 18.7374 11.2914 18.7058 11.4338L17.1502 18.4338C16.9469 19.3489 16.1352 20 15.1978 20H4.80217C3.86477 20 3.05315 19.3489 2.8498 18.4338L1.29424 11.4338C1.2509 11.2388 1.23764 11.0441 1.25138 10.8546C0.517522 10.5586 0 9.83971 0 8.99998V6.99997C0 5.89541 0.89543 4.99997 2 4.99997L4.882 4.99976L7.10557 0.552761C7.35256 0.0587828 7.95323 -0.141442 8.44721 0.105548C8.94119 0.352537 9.14142 0.95321 8.89443 1.44719L7.118 4.99976H12.881L11.1056 1.44719C10.8586 0.95321 11.0588 0.352537 11.5528 0.105548C12.0468 -0.141442 12.6474 0.0587828 12.8944 0.552761ZM16.7534 11H3.24662L4.80217 18H15.1978L16.7534 11ZM2 6.99997L3.99978 7.00055C4.00028 7.36688 4.20281 7.71941 4.55279 7.8944C5.04676 8.14139 5.64744 7.94117 5.89443 7.44719L6.118 6.99976H13.881L14.1056 7.44719C14.3526 7.94117 14.9532 8.14139 15.4472 7.8944C15.7972 7.71941 15.9997 7.36688 16.0002 7.00055L18 6.99997V8.99998H2V6.99997Z" fill="#171112"/>
</svg>
