<svg width="37" height="36" viewBox="0 0 37 36" fill="none" xmlns="http://www.w3.org/2000/svg">
<path d="M2.4903 19.1004L7.8303 23.0004L5.8023 29.2809C5.47457 30.255 5.47042 31.3089 5.79047 32.2856C6.11051 33.2622 6.73762 34.1092 7.5783 34.7004C8.40458 35.3106 9.40589 35.6375 10.433 35.6323C11.4602 35.6272 12.4582 35.2903 13.2783 34.6719L18.4998 30.8289L23.7228 34.6674C24.5476 35.2741 25.5435 35.6036 26.5674 35.6086C27.5912 35.6136 28.5903 35.2938 29.421 34.6952C30.2516 34.0966 30.871 33.25 31.1902 32.2771C31.5094 31.3043 31.5119 30.2553 31.1973 29.2809L29.1693 23.0004L34.5093 19.1004C35.333 18.4982 35.9453 17.651 36.2588 16.68C36.5723 15.709 36.5709 14.6637 36.2548 13.6935C35.9387 12.7233 35.3242 11.8778 34.4988 11.2778C33.6735 10.6777 32.6797 10.3539 31.6593 10.3524H25.0998L23.1093 4.14842C22.7963 3.17186 22.1812 2.31994 21.3528 1.71552C20.5243 1.11109 19.5253 0.7854 18.4998 0.7854C17.4743 0.7854 16.4753 1.11109 15.6468 1.71552C14.8184 2.31994 14.2033 3.17186 13.8903 4.14842L11.8998 10.3524H5.3463C4.32592 10.3539 3.33209 10.6777 2.50677 11.2778C1.68145 11.8778 1.06686 12.7233 0.750783 13.6935C0.434704 14.6637 0.433305 15.709 0.746786 16.68C1.06027 17.651 1.67259 18.4982 2.4963 19.1004H2.4903Z" fill="#FF560D"/>
</svg>
