<svg width="22" height="20" viewBox="0 0 22 20" fill="none" xmlns="http://www.w3.org/2000/svg">
<path d="M10.5277 0.358695C10.6834 -0.0890854 11.3166 -0.0890865 11.4723 0.358694L13.7071 6.78807C13.7758 6.98561 13.9601 7.11955 14.1692 7.12381L20.9745 7.26249C21.4485 7.27215 21.6442 7.87442 21.2664 8.16082L15.8423 12.2731C15.6757 12.3994 15.6053 12.6161 15.6658 12.8163L17.6369 19.3314C17.7742 19.7851 17.2618 20.1574 16.8727 19.8866L11.2856 15.9987C11.1139 15.8793 10.8861 15.8793 10.7144 15.9987L5.12728 19.8866C4.73816 20.1574 4.22584 19.7851 4.36311 19.3314L6.33418 12.8163C6.39473 12.6161 6.32432 12.3994 6.15767 12.2731L0.733574 8.16082C0.355808 7.87442 0.551497 7.27215 1.02546 7.26249L7.83077 7.12381C8.03986 7.11955 8.2242 6.98561 8.29287 6.78808L10.5277 0.358695Z" fill="#FDCF5A"/>
</svg>
