<svg width="31" height="30" viewBox="0 0 31 30" fill="none" xmlns="http://www.w3.org/2000/svg">
<path d="M14.1667 15.3567V12.5014C13.7405 12.3917 13.2938 12.3333 12.8334 12.3333C9.88785 12.3333 7.50004 14.7211 7.50004 17.6667C7.50004 20.6122 9.88785 23 12.8334 23C15.7789 23 18.1667 20.6122 18.1667 17.6667V11.0005C19.2809 11.8374 20.6659 12.3333 22.1667 12.3333V9.66666C19.9576 9.66666 18.1667 7.8758 18.1667 5.66666H15.5V17.6667C15.5 19.1394 14.3061 20.3333 12.8334 20.3333C11.3606 20.3333 10.1667 19.1394 10.1667 17.6667C10.1667 16.1939 11.3606 15 12.8334 15C13.3191 15 13.7745 15.1299 14.1667 15.3567Z" fill="#FBFBFB"/>
<path fill-rule="evenodd" clip-rule="evenodd" d="M15.5 29.6667C7.39986 29.6667 0.833374 23.1002 0.833374 15C0.833374 6.89982 7.39986 0.333328 15.5 0.333328C23.6002 0.333328 30.1667 6.89982 30.1667 15C30.1667 23.1002 23.6002 29.6667 15.5 29.6667ZM15.5 27C22.1275 27 27.5 21.6274 27.5 15C27.5 8.37258 22.1275 2.99999 15.5 2.99999C8.87262 2.99999 3.50004 8.37258 3.50004 15C3.50004 21.6274 8.87262 27 15.5 27Z" fill="#FBFBFB"/>
</svg>
