<svg width="37" height="37" viewBox="0 0 37 37" fill="none" xmlns="http://www.w3.org/2000/svg">
<path d="M17.0003 8.40835C12.8541 8.72003 8.85341 10.0717 5.36776 12.3384C5.82355 10.5221 6.78888 8.87392 8.15006 7.58795C9.51123 6.30198 11.2116 5.43178 13.0508 5.07985C13.5374 4.98195 14.0399 4.9951 14.5208 5.11835C15.0017 5.24159 15.4486 5.47174 15.8282 5.79165C16.2078 6.11156 16.5103 6.513 16.7133 6.96606C16.9162 7.41912 17.0143 7.91212 17.0003 8.40835ZM35.9813 8.37385C35.4364 7.62842 34.7453 7.00189 33.9502 6.53251C33.1551 6.06312 32.2727 5.76075 31.3568 5.64385C31.2399 4.72796 30.9375 3.84551 30.4681 3.0504C29.9987 2.25529 29.3722 1.5642 28.6268 1.01935C28.2445 0.731664 27.7896 0.556088 27.3132 0.512287C26.8367 0.468487 26.3575 0.55819 25.9291 0.771351C25.5008 0.984512 25.1403 1.31271 24.8879 1.7192C24.6355 2.12568 24.5013 2.5944 24.5003 3.07285V11.0003C13.2248 11.0003 6.79126 13.1559 3.44476 18.7914C6.99593 19.719 10.2354 21.577 12.8291 24.1739C15.4229 26.7708 17.277 30.0126 18.2003 33.5648C23.8418 30.2198 26.0003 23.7848 26.0003 12.5003H33.9278C34.4062 12.4993 34.8749 12.3651 35.2814 12.1127C35.6879 11.8604 36.0161 11.4998 36.2293 11.0715C36.4424 10.6431 36.5321 10.1639 36.4883 9.68744C36.4445 9.21099 36.2689 8.75615 35.9813 8.37385ZM29.3003 20.0004H28.5878C28.3615 22.0328 27.9533 24.0408 27.3683 26.0003H28.5893C32.3198 26.1158 33.5183 20.1863 29.3003 20.0004ZM15.4268 34.8668C11.8268 35.8988 5.62126 38.0813 2.25676 34.7439C1.65256 34.1415 1.18438 33.4167 0.883725 32.6182C0.583073 31.8197 0.456922 30.9661 0.513761 30.1148C0.652897 27.2032 1.19869 24.3253 2.13526 21.5648C5.38254 22.2968 8.35539 23.9354 10.7083 26.2901C13.0611 28.6448 14.6973 31.619 15.4268 34.8668ZM8.00026 30.5003C8.00026 30.1025 7.84223 29.721 7.56092 29.4397C7.27962 29.1584 6.89809 29.0003 6.50026 29.0003C6.10244 29.0003 5.72091 29.1584 5.4396 29.4397C5.1583 29.721 5.00026 30.1025 5.00026 30.5003C5.00026 30.8982 5.1583 31.2797 5.4396 31.561C5.72091 31.8423 6.10244 32.0003 6.50026 32.0003C6.89809 32.0003 7.27962 31.8423 7.56092 31.561C7.84223 31.2797 8.00026 30.8982 8.00026 30.5003Z" fill="#FF560D"/>
</svg>
