<svg width="31" height="30" viewBox="0 0 31 30" fill="none" xmlns="http://www.w3.org/2000/svg">
<path fill-rule="evenodd" clip-rule="evenodd" d="M15.9762 14.5256C15.6998 14.2489 15.4801 13.9909 15.325 13.7764C15.477 13.5763 15.6488 13.3347 15.8564 13.0428C15.9919 12.3068 16.0278 12.1122 16.0091 11.9231C16.0024 11.8551 15.9887 11.7879 15.97 11.6964C15.9134 11.3665 15.8551 11.2181 15.7318 10.9504C15.6649 10.8052 15.5734 10.627 15.4434 10.3844C15.2193 9.96628 14.8631 9.32555 14.3703 8.45363C13.26 6.48926 10.8207 6.64409 9.57976 7.86704C9.24438 8.19756 9.1289 8.3131 8.78837 8.65902C6.1901 11.2591 7.68196 15.9737 11.1015 19.3972C14.5236 22.8233 19.2401 24.3123 21.8608 21.6901C22.1574 21.4045 22.4338 21.128 22.6568 20.8922C23.8557 19.6249 24.0252 17.2508 22.0367 16.1257C21.1678 15.6341 20.529 15.2788 20.1115 15.0552C19.8682 14.9249 19.6892 14.8332 19.5422 14.7658C19.2711 14.6416 19.1186 14.5824 18.7828 14.5271C18.4325 14.4596 18.4325 14.4596 17.4504 14.6453C17.1538 14.8504 16.9107 15.0184 16.711 15.1674C16.4995 15.0129 16.2468 14.7964 15.9762 14.5256ZM20.7235 18.4466C19.0189 17.4822 18.2289 17.0591 18.3534 17.1773L17.8424 17.6886C16.9738 18.5578 15.4947 17.8169 14.0895 16.4101C12.6834 15.0024 11.9435 13.5236 12.8123 12.6547L13.3231 12.1436C13.441 12.2701 13.0162 11.4775 12.0488 9.76578C11.9472 9.58615 11.5724 9.64725 11.4516 9.76638C11.1292 10.0841 11.0232 10.19 10.6887 10.5298C9.48573 11.7336 10.4067 14.9281 12.9882 17.5127C15.569 20.0964 18.7624 21.0179 19.9746 19.8051C20.2797 19.5108 20.5282 19.262 20.7196 19.0597C20.8579 18.9135 20.923 18.5595 20.7235 18.4466Z" fill="#FBFBFB"/>
<path fill-rule="evenodd" clip-rule="evenodd" d="M2.92121 22.5462L1.81894 28.8842L7.4145 27.2385C9.79002 28.8111 12.582 29.6667 15.5 29.6667C23.6002 29.6667 30.1666 23.1002 30.1666 15C30.1666 6.89982 23.6002 0.333328 15.5 0.333328C7.3998 0.333328 0.833313 6.89982 0.833313 15C0.833313 17.6968 1.5637 20.2882 2.92121 22.5462ZM7.90525 24.3145L5.18102 25.1158L5.72581 21.9832L5.43924 21.5436C4.18009 19.6121 3.49998 17.3582 3.49998 15C3.49998 8.37258 8.87256 2.99999 15.5 2.99999C22.1274 2.99999 27.5 8.37258 27.5 15C27.5 21.6274 22.1274 27 15.5 27C12.9234 27 10.473 26.1875 8.43644 24.702L7.90525 24.3145Z" fill="#FBFBFB"/>
</svg>
